REM DIRINDEX 1\2\6,1\2\7,1\2\8,1\2\9,1\3\10,1\3\11,1\4\12,1\4\13,1\4\14,1\5\15,1\5\16,1\5\17
REM DIRNAME cjc029,folder01,folder02,folder03,folder04,folder05,folder06,folder07,folder08,folder09,folder10,folder11,folder12,folder13,folder14,folder15,folder16
TITLE ""
FILE "1400_2_sec06_0517_0533.mp3" MP3
  TRACK 01 AUDIO
    TITLE "0:"
    INDEX 01 00:00:00
  TRACK 02 AUDIO
    TITLE "13:cjc029_2621"
    INDEX 01 00:00:19
  TRACK 03 AUDIO
    TITLE "0:"
    INDEX 01 00:01:30
  TRACK 04 AUDIO
    TITLE "14:cjc029_2622"
    INDEX 01 00:01:36
  TRACK 05 AUDIO
    TITLE "0:"
    INDEX 01 00:03:39
  TRACK 06 AUDIO
    TITLE "13:cjc029_2623"
    INDEX 01 00:04:21
  TRACK 07 AUDIO
    TITLE "0:"
    INDEX 01 00:05:42
  TRACK 08 AUDIO
    TITLE "14:cjc029_2624"
    INDEX 01 00:05:46
  TRACK 09 AUDIO
    TITLE "0:"
    INDEX 01 00:07:68
  TRACK 10 AUDIO
    TITLE "13:cjc029_2625"
    INDEX 01 00:08:52
  TRACK 11 AUDIO
    TITLE "0:"
    INDEX 01 00:09:57
  TRACK 12 AUDIO
    TITLE "14:cjc029_2626"
    INDEX 01 00:09:63
  TRACK 13 AUDIO
    TITLE "0:"
    INDEX 01 00:13:33
  TRACK 14 AUDIO
    TITLE "13:cjc029_2627"
    INDEX 01 00:14:13
  TRACK 15 AUDIO
    TITLE "0:"
    INDEX 01 00:15:15
  TRACK 16 AUDIO
    TITLE "14:cjc029_2628"
    INDEX 01 00:15:21
  TRACK 17 AUDIO
    TITLE "0:"
    INDEX 01 00:17:69
  TRACK 18 AUDIO
    TITLE "13:cjc029_2629"
    INDEX 01 00:18:52
  TRACK 19 AUDIO
    TITLE "0:"
    INDEX 01 00:19:63
  TRACK 20 AUDIO
    TITLE "14:cjc029_2630"
    INDEX 01 00:19:65
  TRACK 21 AUDIO
    TITLE "0:"
    INDEX 01 00:22:38
  TRACK 22 AUDIO
    TITLE "13:cjc029_2631"
    INDEX 01 00:23:18
  TRACK 23 AUDIO
    TITLE "0:"
    INDEX 01 00:24:37
  TRACK 24 AUDIO
    TITLE "14:cjc029_2632"
    INDEX 01 00:24:41
  TRACK 25 AUDIO
    TITLE "0:"
    INDEX 01 00:25:66
  TRACK 26 AUDIO
    TITLE "13:cjc029_2633"
    INDEX 01 00:26:48
  TRACK 27 AUDIO
    TITLE "0:"
    INDEX 01 00:27:59
  TRACK 28 AUDIO
    TITLE "14:cjc029_2634"
    INDEX 01 00:27:65
  TRACK 29 AUDIO
    TITLE "0:"
    INDEX 01 00:30:10
  TRACK 30 AUDIO
    TITLE "13:cjc029_2635"
    INDEX 01 00:30:65
  TRACK 31 AUDIO
    TITLE "0:"
    INDEX 01 00:32:07
  TRACK 32 AUDIO
    TITLE "14:cjc029_2636"
    INDEX 01 00:32:11
  TRACK 33 AUDIO
    TITLE "0:"
    INDEX 01 00:35:74
  TRACK 34 AUDIO
    TITLE "13:cjc029_2637"
    INDEX 01 00:36:54
  TRACK 35 AUDIO
    TITLE "0:"
    INDEX 01 00:37:59
  TRACK 36 AUDIO
    TITLE "14:cjc029_2638"
    INDEX 01 00:37:65
  TRACK 37 AUDIO
    TITLE "0:"
    INDEX 01 00:39:64
  TRACK 38 AUDIO
    TITLE "13:cjc029_2639"
    INDEX 01 00:40:48
  TRACK 39 AUDIO
    TITLE "0:"
    INDEX 01 00:41:69
  TRACK 40 AUDIO
    TITLE "14:cjc029_2640"
    INDEX 01 00:42:04
  TRACK 41 AUDIO
    TITLE "0:"
    INDEX 01 00:43:42
  TRACK 42 AUDIO
    TITLE "13:cjc029_2641"
    INDEX 01 00:44:22
  TRACK 43 AUDIO
    TITLE "0:"
    INDEX 01 00:45:39
  TRACK 44 AUDIO
    TITLE "14:cjc029_2642"
    INDEX 01 00:45:43
  TRACK 45 AUDIO
    TITLE "0:"
    INDEX 01 00:47:13
  TRACK 46 AUDIO
    TITLE "13:cjc029_2643"
    INDEX 01 00:47:66
  TRACK 47 AUDIO
    TITLE "0:"
    INDEX 01 00:48:67
  TRACK 48 AUDIO
    TITLE "14:cjc029_2644"
    INDEX 01 00:48:71
  TRACK 49 AUDIO
    TITLE "0:"
    INDEX 01 00:50:37
  TRACK 50 AUDIO
    TITLE "13:cjc029_2645"
    INDEX 01 00:51:20
  TRACK 51 AUDIO
    TITLE "0:"
    INDEX 01 00:52:43
  TRACK 52 AUDIO
    TITLE "14:cjc029_2646"
    INDEX 01 00:52:49
  TRACK 53 AUDIO
    TITLE "0:"
    INDEX 01 00:55:18
  TRACK 54 AUDIO
    TITLE "13:cjc029_2647"
    INDEX 01 00:55:73
  TRACK 55 AUDIO
    TITLE "0:"
    INDEX 01 00:57:21
  TRACK 56 AUDIO
    TITLE "14:cjc029_2648"
    INDEX 01 00:57:31
  TRACK 57 AUDIO
    TITLE "0:"
    INDEX 01 01:02:22
  TRACK 58 AUDIO
    TITLE "13:cjc029_2649"
    INDEX 01 01:03:04
  TRACK 59 AUDIO
    TITLE "0:"
    INDEX 01 01:04:19
  TRACK 60 AUDIO
    TITLE "14:cjc029_2650"
    INDEX 01 01:04:27
  TRACK 61 AUDIO
    TITLE "0:"
    INDEX 01 01:07:49
  TRACK 62 AUDIO
    TITLE "13:cjc029_2651"
    INDEX 01 01:08:33
  TRACK 63 AUDIO
    TITLE "0:"
    INDEX 01 01:09:59
  TRACK 64 AUDIO
    TITLE "14:cjc029_2652"
    INDEX 01 01:09:63
  TRACK 65 AUDIO
    TITLE "0:"
    INDEX 01 01:13:02
  TRACK 66 AUDIO
    TITLE "13:cjc029_2653"
    INDEX 01 01:13:59
  TRACK 67 AUDIO
    TITLE "0:"
    INDEX 01 01:14:70
  TRACK 68 AUDIO
    TITLE "14:cjc029_2654"
    INDEX 01 01:14:74
  TRACK 69 AUDIO
    TITLE "0:"
    INDEX 01 01:16:34
